# xmcd
#
# Track frame offsets:
#	210
#	13445
#	24197
#	41207
#	51842
#	65415
#	79430
#	90472
#	100890
#	116770
#	131035
#	146335
#
# Disc length: 2121 seconds
#
# Revision: 2
# Processed by: cddbd v1.4PL0 Copyright (c) Steve Scherf et al.
# Submitted via: EasyCDDAExtractor 4.5.0.2
#
DISCID=a608470c
DTITLE=Alison Krauss - I've Got That Old Feeling
DYEAR=1990
DGENRE=Bluegrass
TTITLE0=I've Got That Old Feeling
TTITLE1=Dark Skies
TTITLE2=Wish I Still Had You
TTITLE3=Endless Highway
TTITLE4=Winter Of A Broken Heart
TTITLE5=It's Over
TTITLE6=Will You Be Leaving
TTITLE7=Steel Rails
TTITLE8=Tonight I'll Be Lonely Too
TTITLE9=One Good Reason
TTITLE10=That Makes One Of Us
TTITLE11=Longest Highway
EXTD=
EXTT0=
EXTT1=
EXTT2=
EXTT3=
EXTT4=
EXTT5=
EXTT6=
EXTT7=
EXTT8=
EXTT9=
EXTT10=
EXTT11=
PLAYORDER=
